<svg height='100px' width='100px'  fill="#000000" xmlns="http://www.w3.org/2000/svg" xmlns:xlink="http://www.w3.org/1999/xlink" version="1.1" x="0px" y="0px" viewBox="0 0 192 192" style="enable-background:new 0 0 192 192;" xml:space="preserve"><g><path d="M182.103,54.146c-1.754-3.553-5.846-5.286-9.617-4.075c-1.697,0.544-3.462,0.82-5.248,0.82   c-9.453,0-17.143-7.693-17.143-17.15c0-2.521,0.537-4.954,1.597-7.229c1.673-3.592,0.465-7.867-2.841-10.052   C133.141,6.078,114.865,0.59,96,0.59c-11.822,0-23.405,2.148-34.426,6.387c-1.795,0.69-3.313,2.044-4.209,3.745   c-1.035,1.966-0.794,4.114-0.794,6.252c0,9.457-7.69,17.15-17.143,17.15c-1.657,0-3.313-0.236-4.901-0.712   c-1.5-0.449-2.87-1.279-4.426-1.531c-2.744-0.444-5.586,0.607-7.382,2.729C8.069,51.92,0,73.941,0,96.618   c0,31.308,15.344,60.735,41.046,78.72c3.836,2.685,9.317,1.412,11.583-2.675c4.636-8.359,13.628-13.552,23.467-13.552   c14.37,0,26.029,10.806,26.544,24.6c0.177,4.746,4.626,8.382,9.316,7.591c22.137-3.708,42.4-15.195,57.055-32.345   C183.836,141.609,192,119.471,192,96.618C192,81.733,188.67,67.444,182.103,54.146z M117.205,173.793   c-4.866-17.793-21.399-30.682-41.11-30.682c-12.479,0-24.132,5.308-32.122,14.272C26.331,142.247,16,120.063,16,96.618   c0-17.09,5.5-33.733,15.583-47.429c2.55,0.621,5.173,0.935,7.846,0.935c17.207,0,31.393-13.185,32.993-29.982   C80.05,17.782,87.958,16.59,96,16.59c13.688,0,27.001,3.466,38.853,10.072c-0.504,2.308-0.757,4.673-0.757,7.079   c0,18.279,14.868,33.15,33.143,33.15c1.003,0,2.002-0.045,2.997-0.135C174.063,76.232,176,86.251,176,96.618   C176,133.139,151.715,164.409,117.205,173.793z"></path><path d="M144,80.59c-13.234,0-24,10.767-24,24s10.766,24,24,24s24-10.767,24-24S157.234,80.59,144,80.59z M144,112.59   c-4.411,0-8-3.589-8-8s3.589-8,8-8s8,3.589,8,8S148.411,112.59,144,112.59z"></path><path d="M56,56.59c-17.645,0-32,14.355-32,32s14.355,32,32,32s32-14.355,32-32S73.645,56.59,56,56.59z M56,104.59   c-8.822,0-16-7.178-16-16s7.178-16,16-16s16,7.178,16,16S64.822,104.59,56,104.59z"></path><circle cx="88" cy="40.59" r="8"></circle><circle cx="120" cy="152.59" r="8"></circle><circle cx="104" cy="80.59" r="8"></circle><circle cx="120" cy="56.59" r="8"></circle><circle cx="48" cy="136.59" r="8"></circle><circle cx="96" cy="120.59" r="8"></circle></g></svg>